<svg width="100" height="100" viewBox="0 0 100 100" fill="none" xmlns="http://www.w3.org/2000/svg">
<g opacity="0.8">
<path d="M21.8751 34.3756C21.4001 34.3756 20.9251 34.2693 20.4751 34.0443C18.9313 33.2756 18.3063 31.3943 19.0813 29.8506L31.5813 4.85059C32.3563 3.30684 34.2251 2.68809 35.7751 3.45059C37.3188 4.22559 37.9438 6.10059 37.1751 7.64434L24.6751 32.6443C24.1188 33.7443 23.0188 34.3756 21.8751 34.3756Z" fill="#455A64"/>
<path d="M78.125 34.3756C76.9812 34.3756 75.8812 33.7443 75.3312 32.6506L62.8312 7.65059C62.0624 6.10684 62.6874 4.23184 64.2312 3.45684C65.7749 2.69434 67.6499 3.31309 68.4249 4.85684L80.925 29.8568C81.6937 31.4006 81.0687 33.2756 79.525 34.0506C79.0687 34.2693 78.5937 34.3756 78.125 34.3756Z" fill="#455A64"/>
<path d="M93.0936 41.8256C92.4999 41.0693 91.5873 40.6256 90.6248 40.6256H9.37485C8.41235 40.6256 7.5061 41.0693 6.91235 41.8256C6.3186 42.5818 6.11235 43.5756 6.3436 44.5068L18.8436 94.5068C19.1936 95.9006 20.4436 96.8756 21.8748 96.8756H78.1248C79.5561 96.8756 80.8123 95.9006 81.1561 94.5068L93.6561 44.5068C93.8874 43.5756 93.6811 42.5818 93.0936 41.8256Z" fill="#D32F2F"/>
<path d="M96.875 28.1256H3.125C1.4 28.1256 0 29.5256 0 31.2506V43.7506C0 45.4756 1.4 46.8756 3.125 46.8756H96.875C98.6 46.8756 100 45.4756 100 43.7506V31.2506C100 29.5256 98.6 28.1256 96.875 28.1256Z" fill="#F44336"/>
<path d="M50 84.3756C48.275 84.3756 46.875 82.9756 46.875 81.2506V62.5006C46.875 60.7756 48.275 59.3756 50 59.3756C51.725 59.3756 53.125 60.7756 53.125 62.5006V81.2506C53.125 82.9756 51.725 84.3756 50 84.3756Z" fill="#FAFAFA"/>
<path d="M34.375 84.3756C32.65 84.3756 31.25 82.9756 31.25 81.2506V62.5006C31.25 60.7756 32.65 59.3756 34.375 59.3756C36.1 59.3756 37.5 60.7756 37.5 62.5006V81.2506C37.5 82.9756 36.1 84.3756 34.375 84.3756Z" fill="#FAFAFA"/>
<path d="M65.625 84.3756C63.9 84.3756 62.5 82.9756 62.5 81.2506V62.5006C62.5 60.7756 63.9 59.3756 65.625 59.3756C67.35 59.3756 68.75 60.7756 68.75 62.5006V81.2506C68.75 82.9756 67.35 84.3756 65.625 84.3756Z" fill="#FAFAFA"/>
</g>
</svg>
